<svg version="1.1" xmlns="http://www.w3.org/2000/svg" width="132" height="130">
<path d="M0 0 C0.90363281 0.46921875 1.80726562 0.9384375 2.73828125 1.421875 C5.25175966 2.84071258 7.62119331 4.36684992 10 6 C10.74636719 6.48855469 11.49273437 6.97710937 12.26171875 7.48046875 C25.58386298 16.89664399 34.50088336 32.51901255 37.4375 48.4375 C37.6607153 50.2877068 37.85203841 52.14226007 38 54 C38.06960937 54.72960938 38.13921875 55.45921875 38.2109375 56.2109375 C39.04156652 73.39856868 31.42038663 90.00354399 20.2578125 102.6796875 C9.06092484 114.1865236 -6.69861699 122.15694942 -22.77294922 122.43188477 C-42.96932418 122.46231295 -58.4929352 118.28719174 -73.4375 104.0625 C-88.88448469 87.36127296 -92.06700236 70.35449063 -91.23828125 48.26611328 C-90.77278798 41.8856123 -89.0765156 36.6376758 -86 31 C-85.49210937 30.04867187 -84.98421875 29.09734375 -84.4609375 28.1171875 C-74.81997821 11.71384918 -60.40891087 0.8914793 -42.18920898 -4.53979492 C-28.68557939 -7.37846357 -12.25393818 -6.42275381 0 0 Z M-45 41 C-48.04179514 54.27105784 -45.51240514 65.49419687 -38.5 76.87109375 C-37.13376219 78.81015523 -35.73643993 80.39275947 -34 82 C-22.51769501 79.31765826 -15.02057203 73.44360132 -8 64 C-5.45509961 59.53927572 -4 56.17510917 -4 51 C-10.8686752 43.92976096 -20.90185618 40.47063955 -30.54296875 39.7265625 C-35.51677013 39.67036135 -40.14044896 39.90124122 -45 41 Z " fill="#2F3691" transform="translate(91,7)"/>
<path d="M0 0 C0.70382813 0.46792969 1.40765625 0.93585937 2.1328125 1.41796875 C2.77476563 1.81371094 3.41671875 2.20945312 4.078125 2.6171875 C5.47073043 3.48837555 6.81038276 4.44354684 8.1328125 5.41796875 C8.1328125 6.07796875 8.1328125 6.73796875 8.1328125 7.41796875 C7.44058594 7.20140625 6.74835938 6.98484375 6.03515625 6.76171875 C-7.40732171 2.93619143 -19.73627918 2.90939596 -32.14453125 9.65625 C-34.11267205 10.84006653 -35.99188828 12.09321609 -37.8671875 13.41796875 C-38.7334375 13.99546875 -39.5996875 14.57296875 -40.4921875 15.16796875 C-48.90019664 23.13345109 -52.6326398 33.18840396 -52.95703125 44.5703125 C-53.10525401 51.18297674 -53.10525401 51.18297674 -51.92749023 57.640625 C-51.86099923 61.80560021 -52.07723514 62.21341787 -54.69116211 65.15014648 C-56.03025816 66.4879797 -57.39132257 67.80405845 -58.76953125 69.1015625 C-59.48121964 69.8019313 -60.19290802 70.50230011 -60.92616272 71.22389221 C-63.20090965 73.45389911 -65.50188054 75.65448578 -67.8046875 77.85546875 C-69.35272373 79.3633761 -70.89897138 80.87312199 -72.44335938 82.38476562 C-76.23081573 86.08407468 -80.04018148 89.75961353 -83.8671875 93.41796875 C-91.820273 89.74472596 -94.88831008 79.76950663 -97.81762695 71.9831543 C-99.53765109 66.14051359 -99.61171814 60.5340502 -99.4921875 54.48046875 C-99.47744385 53.25207275 -99.4627002 52.02367676 -99.44750977 50.75805664 C-99.20301818 41.757299 -98.23534013 34.42255301 -93.8671875 26.41796875 C-93.35929687 25.46664062 -92.85140625 24.5153125 -92.328125 23.53515625 C-82.68716571 7.13181793 -68.27609837 -3.69055195 -50.05639648 -9.12182617 C-32.46265034 -12.82029963 -14.93561098 -9.58738064 0 0 Z " fill="#B81D8D" transform="translate(98.8671875,11.58203125)"/>
<path d="M0 0 C2.8125 2.125 2.8125 2.125 5 5 C5.6084375 5.76699219 6.216875 6.53398437 6.84375 7.32421875 C8.58931456 9.53041841 10.30352834 11.75596399 12 14 C10.63088196 17.1489715 9.1247864 19.0478487 6.5 21.25 C5.8915625 21.77078125 5.283125 22.2915625 4.65625 22.828125 C3 24 3 24 1 24 C0.896875 24.598125 0.79375 25.19625 0.6875 25.8125 C-0.09824033 28.31258286 -0.96918853 29.37535082 -3 31 C-3.66 31 -4.32 31 -5 31 C-5.23460937 31.57234375 -5.46921875 32.1446875 -5.7109375 32.734375 C-7.29406585 35.51684301 -9.1991525 37.17070214 -11.625 39.25 C-12.44226563 39.95640625 -13.25953125 40.6628125 -14.1015625 41.390625 C-14.72804687 41.92171875 -15.35453125 42.4528125 -16 43 C-16.47308594 42.69707031 -16.94617188 42.39414062 -17.43359375 42.08203125 C-19.61120885 40.70245053 -21.80191865 39.34673766 -24 38 C-24.72058594 37.55785156 -25.44117188 37.11570313 -26.18359375 36.66015625 C-37.7053976 29.90316255 -47.95164407 29.61622483 -61 30 C-59.73893217 20.5487712 -54.41771423 12.26043312 -46.93359375 6.375 C-32.80276281 -3.45514326 -16.42477248 -6.47036492 0 0 Z " fill="#2F3691" transform="translate(107,18)"/>
<path d="M0 0 C8.07830848 9.98601398 11.18181694 24.34874648 10 37 C8.42401452 51.5583609 8.42401452 51.5583609 3.125 56.1875 C1.7693003 57.15269924 0.39608916 58.09420405 -1 59 C-2.175625 60.051875 -2.175625 60.051875 -3.375 61.125 C-7.28342335 63.91673096 -11.48897004 66.32556685 -16 68 C-16.99 67.67 -17.98 67.34 -19 67 C-18.94199219 65.69546875 -18.88398437 64.3909375 -18.82421875 63.046875 C-18.41458629 49.84002119 -19.87562887 39.83249484 -28 29 C-26.58911589 25.69346646 -24.94468631 23.8452183 -22.1875 21.5625 C-16.34652276 17.04329005 -16.34652276 17.04329005 -12.21875 11.15234375 C-10.49252873 8.10379272 -8.11068895 6.41310289 -5.375 4.25 C-4.37210938 3.45078125 -3.36921875 2.6515625 -2.3359375 1.828125 C-1.56507812 1.22484375 -0.79421875 0.6215625 0 0 Z " fill="#00A6DF" transform="translate(119,33)"/>
<path d="M0 0 C0.99 0.33 1.98 0.66 3 1 C3.75195312 2.88256836 3.75195312 2.88256836 4.28125 5.33984375 C4.48363281 6.23896484 4.68601563 7.13808594 4.89453125 8.06445312 C5.19423828 9.48661133 5.19423828 9.48661133 5.5 10.9375 C5.90322163 12.78061305 6.30946636 14.62306736 6.71875 16.46484375 C6.92113281 17.38249512 7.12351563 18.30014648 7.33203125 19.24560547 C7.99561097 21.98190167 8.79978585 24.63492959 9.65625 27.31640625 C10.80261579 30.99042065 11.30651067 34.1175315 11 38 C-4.32758268 38.55179298 -15.95613016 36.11905046 -28 26 C-28 25.34 -28 24.68 -28 24 C-27.24976563 23.74347656 -26.49953125 23.48695312 -25.7265625 23.22265625 C-13.51289708 18.65406856 -5.93764894 11.56151968 0 0 Z " fill="#017ABD" transform="translate(85,65)"/>
<path d="M0 0 C4.55015893 1.51671964 6.50057264 5.16891053 9 9 C7.63088196 12.1489715 6.1247864 14.0478487 3.5 16.25 C2.8915625 16.77078125 2.283125 17.2915625 1.65625 17.828125 C0 19 0 19 -2 19 C-2.103125 19.598125 -2.20625 20.19625 -2.3125 20.8125 C-3.09824033 23.31258286 -3.96918853 24.37535082 -6 26 C-6.66 26 -7.32 26 -8 26 C-8.23460938 26.57234375 -8.46921875 27.1446875 -8.7109375 27.734375 C-10.29406585 30.51684301 -12.1991525 32.17070214 -14.625 34.25 C-15.44226563 34.95640625 -16.25953125 35.6628125 -17.1015625 36.390625 C-17.72804688 36.92171875 -18.35453125 37.4528125 -19 38 C-20.2964351 37.23721377 -21.58699148 36.46443041 -22.875 35.6875 C-23.59429687 35.25824219 -24.31359375 34.82898437 -25.0546875 34.38671875 C-27 33 -27 33 -29 30 C-27.25113898 28.08228343 -25.50095499 26.16580317 -23.75 24.25 C-23.25886719 23.71117188 -22.76773438 23.17234375 -22.26171875 22.6171875 C-16.28580264 16.08351922 -16.28580264 16.08351922 -14 14 C-13.34 14 -12.68 14 -12 14 C-11.773125 13.443125 -11.54625 12.88625 -11.3125 12.3125 C-9.63281165 9.3530491 -7.45866715 7.33873216 -5 5 C-4.443125 4.401875 -3.88625 3.80375 -3.3125 3.1875 C-2 2 -2 2 0 2 C0 1.34 0 0.68 0 0 Z " fill="#0078BB" transform="translate(110,23)"/>
<path d="M0 0 C0.33 2.64 0.66 5.28 1 8 C1.33 6.02 1.66 4.04 2 2 C2.33 2 2.66 2 3 2 C3.04898438 2.82242188 3.09796875 3.64484375 3.1484375 4.4921875 C3.6161944 11.47628184 4.41439227 18.18034735 6 25 C-3.89245042 26.19391643 -12.03512426 21.58426858 -19.921875 15.890625 C-20.60765625 15.26671875 -21.2934375 14.6428125 -22 14 C-22 13.34 -22 12.68 -22 12 C-21.2265625 11.72027344 -20.453125 11.44054687 -19.65625 11.15234375 C-13.26709314 8.69315095 -8.40666782 6.1871882 -3.5234375 1.35546875 C-2 0 -2 0 0 0 Z " fill="#00A3DD" transform="translate(79,77)"/>
<path d="M0 0 C5.24137323 2.1688441 7.24587984 6.25024732 10 11 C10.42023438 11.69738281 10.84046875 12.39476563 11.2734375 13.11328125 C15.32802025 21.2080688 14.30390324 30.28870671 13.94995117 39.09570312 C13.86780444 41.08857551 13.86780444 41.08857551 15 43 C13.02 43 11.04 43 9 43 C6 31 3 19 0 7 C-0.22171875 6.2575 -0.4434375 5.515 -0.671875 4.75 C-1 3 -1 3 0 0 Z " fill="#2A3C94" transform="translate(87,59)"/>
<path d="M0 0 C0.66 1.98 1.32 3.96 2 6 C-0.74585788 8.77496433 -3.4973949 11.54422967 -6.25 14.3125 C-7.02730469 15.09818359 -7.80460937 15.88386719 -8.60546875 16.69335938 C-9.73662109 17.8293457 -9.73662109 17.8293457 -10.890625 18.98828125 C-11.58188477 19.68477783 -12.27314453 20.38127441 -12.98535156 21.09887695 C-18.17914473 26 -18.17914473 26 -21 26 C-21.165 26.70125 -21.33 27.4025 -21.5 28.125 C-23.68535165 32.31359067 -27.14671162 34.39230949 -31 37 C-31.99 36.01 -32.98 35.02 -34 34 C-32.68995776 31.10984919 -31.28755525 29.03557826 -29.05078125 26.79199219 C-28.45676514 26.19167175 -27.86274902 25.59135132 -27.25073242 24.97283936 C-26.61111572 24.33727112 -25.97149902 23.70170288 -25.3125 23.046875 C-24.65419189 22.38665344 -23.99588379 21.72643188 -23.31762695 21.04620361 C-21.92807708 19.65529499 -20.53600726 18.26689992 -19.14160156 16.88085938 C-17.00090714 14.75090259 -14.8711209 12.61045504 -12.7421875 10.46875 C-11.39126613 9.11914961 -10.03972482 7.77016941 -8.6875 6.421875 C-8.0478833 5.77820984 -7.4082666 5.13454468 -6.74926758 4.47137451 C-2.22992911 0 -2.22992911 0 0 0 Z " fill="#583390" transform="translate(48,73)"/>
<path d="M0 0 C3.875 1.75 3.875 1.75 5 4 C-0.59233364 10.64438029 -6.64704749 16.76486211 -12.8125 22.875 C-13.77562672 23.83309606 -14.7385188 24.79142804 -15.70117188 25.75 C-18.1320198 28.16878844 -20.56574266 30.58464444 -23 33 C-23.66 33.66 -24.32 34.32 -25 35 C-26.32 33.35 -27.64 31.7 -29 30 C-27.25113898 28.08228343 -25.50095499 26.16580317 -23.75 24.25 C-23.25886719 23.71117188 -22.76773438 23.17234375 -22.26171875 22.6171875 C-16.28580264 16.08351922 -16.28580264 16.08351922 -14 14 C-13.34 14 -12.68 14 -12 14 C-11.773125 13.443125 -11.54625 12.88625 -11.3125 12.3125 C-9.63281165 9.3530491 -7.45866715 7.33873216 -5 5 C-4.443125 4.401875 -3.88625 3.80375 -3.3125 3.1875 C-2 2 -2 2 0 2 C0 1.34 0 0.68 0 0 Z " fill="#0C5CA7" transform="translate(110,23)"/>
<path d="M0 0 C0.99 0.33 1.98 0.66 3 1 C3.75195312 2.88256836 3.75195312 2.88256836 4.28125 5.33984375 C4.48363281 6.23896484 4.68601562 7.13808594 4.89453125 8.06445312 C5.09433594 9.01255859 5.29414062 9.96066406 5.5 10.9375 C5.90322163 12.78061305 6.30946636 14.62306736 6.71875 16.46484375 C6.92137451 17.37943359 7.12399902 18.29402344 7.33276367 19.23632812 C8.19969454 22.82712851 9.27929396 26.3329445 10.41333008 29.84741211 C11.16596987 32.60897061 11.22449519 35.15639426 11 38 C9.35 38 7.7 38 6 38 C5.34 35.03 4.68 32.06 4 29 C3.67 29 3.34 29 3 29 C2.87882812 27.80503906 2.75765625 26.61007813 2.6328125 25.37890625 C1.66509167 15.36987164 1.66509167 15.36987164 -0.1875 5.5 C-1 2 -1 2 0 0 Z " fill="#0B5DA7" transform="translate(85,65)"/>
<path d="M0 0 C0.66 0.99 1.32 1.98 2 3 C-4.80973536 10.37385545 -11.63382057 17.73287318 -18.6875 24.875 C-19.17959961 25.37999023 -19.67169922 25.88498047 -20.17871094 26.40527344 C-22.45537046 28.68830569 -23.89079684 29.96359895 -27 31 C-27.33 29.68 -27.66 28.36 -28 27 C-27.33613281 26.40832031 -26.67226562 25.81664063 -25.98828125 25.20703125 C-18.08231125 19.01716107 -18.08231125 19.01716107 -12.2265625 11.16015625 C-10.4944451 8.10964376 -8.11460419 6.41619867 -5.375 4.25 C-4.37210938 3.45078125 -3.36921875 2.6515625 -2.3359375 1.828125 C-1.56507812 1.22484375 -0.79421875 0.6215625 0 0 Z " fill="#009AD7" transform="translate(119,33)"/>
<path d="M0 0 C0.99 0.33 1.98 0.66 3 1 C-2.66574049 7.92810724 -9.03033639 14.14204142 -15.375 20.4375 C-16.50413955 21.56161467 -17.63304778 22.68596174 -18.76171875 23.81054688 C-21.50515188 26.54305235 -24.25169985 29.27239009 -27 32 C-27.66 31.34 -28.32 30.68 -29 30 C-27.25113898 28.08228343 -25.50095499 26.16580317 -23.75 24.25 C-23.25886719 23.71117188 -22.76773438 23.17234375 -22.26171875 22.6171875 C-16.28580264 16.08351922 -16.28580264 16.08351922 -14 14 C-13.34 14 -12.68 14 -12 14 C-11.773125 13.443125 -11.54625 12.88625 -11.3125 12.3125 C-9.63281165 9.3530491 -7.45866715 7.33873216 -5 5 C-4.443125 4.401875 -3.88625 3.80375 -3.3125 3.1875 C-2 2 -2 2 0 2 C0 1.34 0 0.68 0 0 Z " fill="#1A4C9D" transform="translate(110,23)"/>
<path d="M0 0 C0.33 0.99 0.66 1.98 1 3 C-8.9 12.9 -18.8 22.8 -29 33 C-29.66 32.67 -30.32 32.34 -31 32 C-29.49359964 28.16552636 -27.16324414 26.53059531 -24 24 C-23.69707031 23.35933594 -23.39414062 22.71867187 -23.08203125 22.05859375 C-21.78335808 19.58783289 -20.46669754 18.6566697 -18.1875 17.0625 C-11.48117139 12.0656277 -5.81691127 5.97874187 0 0 Z " fill="#403490" transform="translate(49,79)"/>
<path d="M0 0 C6.07124917 2.87071138 11.75196036 5.77875072 17 10 C17 10.66 17 11.32 17 12 C16.24976562 11.79503906 15.49953125 11.59007812 14.7265625 11.37890625 C8.14212617 9.64572339 1.79622301 8.43604086 -5 8 C-5 5 -5 5 -2.5 2.3125 C-1.675 1.549375 -0.85 0.78625 0 0 Z " fill="#A0278E" transform="translate(90,7)"/>
<path d="M0 0 C0.66 0.33 1.32 0.66 2 1 C0.48099978 4.6241364 -1.68070454 6.857624 -4.5 9.5625 C-7.02809153 11.9961985 -9.04672934 14.07009401 -11 17 C-11.66 17 -12.32 17 -13 17 C-13.25136719 17.58652344 -13.50273438 18.17304687 -13.76171875 18.77734375 C-16.74006432 24.12333312 -22.68346337 28.17558991 -28 31 C-26.38448553 26.91709903 -23.45360304 24.21566164 -20.37109375 21.2109375 C-19.54654442 20.39419052 -19.54654442 20.39419052 -18.70533752 19.5609436 C-16.95408824 17.82746221 -15.19628312 16.10083449 -13.4375 14.375 C-11.67604189 12.64115848 -9.91606377 10.90587817 -8.15895081 9.16763306 C-7.06658495 8.08752633 -5.97155704 7.01010397 -4.87364197 5.93563843 C-2.08448055 3.23686511 -2.08448055 3.23686511 0 0 Z " fill="#016CB2" transform="translate(114,27)"/>
<path d="M0 0 C0.99 0.33 1.98 0.66 3 1 C4.15664737 6.48269069 4.11416255 11.80339274 4.0625 17.375 C4.05798828 18.30183594 4.05347656 19.22867188 4.04882812 20.18359375 C4.03711574 22.45579709 4.02071372 24.72786388 4 27 C3.67 27 3.34 27 3 27 C2.01 22.38 1.02 17.76 0 13 C-0.99 13.495 -0.99 13.495 -2 14 C-2.25028811 12.41986783 -2.47440946 10.83557694 -2.6875 9.25 C-2.81511719 8.36828125 -2.94273438 7.4865625 -3.07421875 6.578125 C-2.98397191 3.44323483 -2.07384637 2.28176413 0 0 Z " fill="#0080C1" transform="translate(81,72)"/>
<path d="M0 0 C0.66 1.32 1.32 2.64 2 4 C-2.455 7.96 -2.455 7.96 -7 12 C-7.66 11.67 -8.32 11.34 -9 11 C-6.42298229 7.86578927 -3.86808078 4.86808078 -1 2 C-0.67 1.34 -0.34 0.68 0 0 Z M-10 12 C-9.67 12.99 -9.34 13.98 -9 15 C-10.28965176 16.37562854 -11.62689293 17.70766393 -13 19 C-13.66 19 -14.32 19 -15 19 C-15.23460938 19.57234375 -15.46921875 20.1446875 -15.7109375 20.734375 C-17.29406585 23.51684301 -19.1991525 25.17070214 -21.625 27.25 C-22.44226563 27.95640625 -23.25953125 28.6628125 -24.1015625 29.390625 C-24.72804688 29.92171875 -25.35453125 30.4528125 -26 31 C-26.33 30.01 -26.66 29.02 -27 28 C-24.91975578 25.89270058 -22.83597761 23.78911127 -20.75 21.6875 C-19.87021484 20.79514648 -19.87021484 20.79514648 -18.97265625 19.88476562 C-16.12147184 17.01756332 -13.34887496 14.29613457 -10 12 Z " fill="#0085C5" transform="translate(117,30)"/>
<path d="M0 0 C0.66 0 1.32 0 2 0 C3.10742431 3.945632 4.20989701 7.89261302 5.30810547 11.84082031 C5.68114739 13.1794014 6.05546201 14.51762856 6.43115234 15.85546875 C8.58206402 23.51845007 10.61434325 31.15565603 12 39 C13.32 39.33 14.64 39.66 16 40 C14.02 40 12.04 40 10 40 C6.66666667 26.66666667 3.33333333 13.33333333 0 0 Z " fill="#1B4C9D" transform="translate(86,62)"/>
<path d="M0 0 C0.66 0.33 1.32 0.66 2 1 C-0.26994864 3.43832518 -2.54111319 5.87551454 -4.8125 8.3125 C-5.77639648 9.34793945 -5.77639648 9.34793945 -6.75976562 10.40429688 C-7.38173828 11.07138672 -8.00371094 11.73847656 -8.64453125 12.42578125 C-9.21534424 13.03848877 -9.78615723 13.65119629 -10.37426758 14.2824707 C-11.88978091 15.88355739 -13.43291809 17.44952293 -15 19 C-15.66 18.67 -16.32 18.34 -17 18 C-14.93432136 15.24576181 -13.02306625 13.01823843 -10.3125 10.875 C-7.74752211 9.13879023 -7.74752211 9.13879023 -7 6 C-5.37109375 4.39453125 -5.37109375 4.39453125 -3.4375 2.8125 C-2.79683594 2.28269531 -2.15617187 1.75289062 -1.49609375 1.20703125 C-1.00238281 0.80871094 -0.50867188 0.41039062 0 0 Z M-19 20 C-19 20.99 -19 21.98 -19 23 C-21.5 24.6875 -21.5 24.6875 -24 26 C-22.63016497 22.83884224 -22.0109362 22.0072908 -19 20 Z " fill="#0090CE" transform="translate(115,36)"/>
<path d="M0 0 C4.74943717 0.1356982 8.59585293 2.8509187 12 6 C12 6.66 12 7.32 12 8 C10.03846209 7.57709963 8.08080125 7.13618382 6.125 6.6875 C5.03445312 6.44386719 3.94390625 6.20023438 2.8203125 5.94921875 C0 5 0 5 -2 2 C-1.34 1.34 -0.68 0.68 0 0 Z " fill="#772F8F" transform="translate(95,11)"/>
<path d="M0 0 C2 1 2 1 3.125 3.375 C4.30959192 8.28259508 4.16087778 12.97703807 4 18 C2.32346807 14.98364549 1.53967255 12.26538328 0.9375 8.875 C0.31726198 5.32208742 0.31726198 5.32208742 -1 2 C-0.67 1.34 -0.34 0.68 0 0 Z " fill="#026BB1" transform="translate(83,69)"/>
<path d="M0 0 C0.66 0 1.32 0 2 0 C2 3.3 2 6.6 2 10 C1.01 10.495 1.01 10.495 0 11 C-0.19406478 9.35492782 -0.38007935 7.70890406 -0.5625 6.0625 C-0.66691406 5.14597656 -0.77132812 4.22945313 -0.87890625 3.28515625 C-0.91886719 2.53105469 -0.95882812 1.77695313 -1 1 C-0.67 0.67 -0.34 0.34 0 0 Z " fill="#008ECC" transform="translate(79,75)"/>
</svg>
